<svg width="156" height="15" viewBox="0 0 156 15" fill="none" xmlns="http://www.w3.org/2000/svg">
<path fill-rule="evenodd" clip-rule="evenodd" d="M20.8501 14.7129L19.0207 14.5694C19.1586 12.1031 18.8202 10.5633 18.0058 9.63679C17.6152 9.24119 17.1449 8.94109 16.6291 8.75827C16.1133 8.57545 15.5649 8.5145 15.0236 8.57981H1.8294V14.6477H0V0.293589H1.8294V6.71378H15.0236C15.5069 6.75717 15.9935 6.69098 16.4499 6.51978C16.9063 6.34857 17.3217 6.07642 17.6675 5.72205C18.6072 4.8086 19.0207 2.98172 19.0207 0.293589H20.8501C20.8501 3.54283 20.2361 5.72204 18.9455 7.06611C18.8202 7.20965 18.6072 7.35319 18.4067 7.56198C18.7711 7.75461 19.0982 8.01561 19.3716 8.33188C20.8627 9.94997 20.9253 12.5598 20.8626 14.6738L20.8501 14.7129ZM36.7509 0.123954C40.8106 0.123954 44.0559 2.38146 44.0559 5.20008V9.92388C44.0559 12.7425 40.8106 14.9217 36.7509 14.9217H30.4858C26.426 14.9217 23.2434 12.7425 23.2434 9.92388V5.20008C23.2434 2.38146 26.426 0.123954 30.4858 0.123954H36.7509ZM30.4858 13.0296H36.7509C39.7205 13.0296 42.2265 11.6203 42.2265 9.92388V5.20008C42.2265 3.51674 39.7205 2.02913 36.7509 2.02913H30.4858C27.5036 2.02913 25.0728 3.51674 25.0728 5.20008V9.92388C25.0728 11.6203 27.5036 13.0296 30.4858 13.0296ZM46.7749 4.43018C46.7749 6.4006 48.88 8.44932 53.4786 8.44932H60.721C64.6429 8.44932 66.134 9.85863 66.134 10.6938C66.134 11.5289 64.48 13.0296 60.8337 13.0296H47.6395V14.9217H60.8337C65.8458 14.9217 68.0135 12.7425 68.0135 10.6938C68.0135 8.64505 65.733 6.54414 60.721 6.54414H53.5287C50.346 6.54414 48.6545 5.48716 48.6545 4.43018C48.6545 3.3732 50.1455 2.10742 53.5287 2.02913L66.5976 2.10743V0.202245L53.5287 0.123954C48.9301 0.202249 46.8251 2.38146 46.8251 4.43018H46.7749ZM88.1244 0.0587138H69.2289V1.96389H77.8246V14.7129H79.654V1.96389H88.1118V0.0587138H88.1244ZM142.33 2.23792H155.95V0.332745H142.317C141.456 0.316699 140.605 0.521347 139.838 0.928674C139.071 1.336 138.412 1.93351 137.919 2.66855C137.01 4.08387 136.537 5.75489 136.566 7.45759C136.566 11.1896 138.52 15 142.38 15H155.95V13.0948H142.38C140.087 13.0948 138.721 10.9809 138.458 8.51456H156V6.60939H138.408C138.52 5.59752 138.868 4.62967 139.423 3.79077C139.751 3.30394 140.189 2.90801 140.698 2.63738C141.206 2.36676 141.771 2.22964 142.342 2.23792H142.33ZM109.488 0.50238V9.24532C109.488 11.6464 105.165 12.9774 101.168 13.0557C96.9706 13.0557 92.5099 11.7508 92.3971 9.14093V0.50238H90.5803V9.24532C90.7056 13.2645 95.9933 14.9478 101.131 14.9478C106.268 14.9478 111.155 13.1209 111.28 9.24532V0.50238H109.488ZM134.799 5.72205C134.536 1.7029 128.709 -0.123976 123.159 0.00651592C117.407 0.228352 113.761 2.40755 113.761 5.6568V14.7912H115.59V5.6568C115.59 3.25575 119.512 2.05523 123.234 1.91169L123.296 14.6738H125.126L125.063 1.98998C128.985 2.19877 132.769 3.54284 132.97 5.78729L133.045 14.6738H134.874L134.799 5.72205Z" fill="white"/>
</svg>
