<svg width="130" height="130" viewBox="0 0 130 130" fill="none" xmlns="http://www.w3.org/2000/svg">
<g clip-path="url(#clip0_111_1221)">
<rect width="130" height="130" fill="#070707"/>
<path d="M39.1484 44.166V46.9697H34.4111V60H31.0811V46.9697H26.3223V44.166H39.1484ZM41.0713 60V44.166H44.3477V50.2031H50.5352V44.166H53.8223V60H50.5352V52.9316H44.3477V60H41.0713ZM60.0205 60H56.7334V44.166H60.0205V60ZM65.5098 55.1123C65.61 55.8356 65.807 56.3763 66.1006 56.7344C66.6377 57.3861 67.5579 57.7119 68.8613 57.7119C69.6419 57.7119 70.2757 57.626 70.7627 57.4541C71.6865 57.1247 72.1484 56.5124 72.1484 55.6172C72.1484 55.0944 71.9193 54.6898 71.4609 54.4033C71.0026 54.124 70.2829 53.877 69.3018 53.6621L67.626 53.2861C65.9788 52.9137 64.8402 52.5091 64.21 52.0723C63.1429 51.3418 62.6094 50.1995 62.6094 48.6455C62.6094 47.2275 63.125 46.0495 64.1562 45.1113C65.1875 44.1732 66.7021 43.7041 68.7002 43.7041C70.3688 43.7041 71.7904 44.1481 72.9648 45.0361C74.1465 45.917 74.766 47.1989 74.8232 48.8818H71.6436C71.5863 47.9294 71.1709 47.2526 70.3975 46.8516C69.8818 46.5866 69.2409 46.4541 68.4746 46.4541C67.6224 46.4541 66.9421 46.626 66.4336 46.9697C65.9251 47.3135 65.6709 47.7933 65.6709 48.4092C65.6709 48.9749 65.9215 49.3975 66.4229 49.6768C66.7451 49.863 67.4326 50.0814 68.4854 50.332L71.2139 50.9873C72.4098 51.2738 73.3122 51.6569 73.9209 52.1367C74.8662 52.8815 75.3389 53.9593 75.3389 55.3701C75.3389 56.8167 74.7839 58.0199 73.6738 58.9795C72.571 59.932 71.0098 60.4082 68.9902 60.4082C66.9277 60.4082 65.3057 59.9391 64.124 59.001C62.9424 58.0557 62.3516 56.7594 62.3516 55.1123H65.5098ZM86.9404 60H83.6533V44.166H86.9404V60ZM92.4297 55.1123C92.5299 55.8356 92.7269 56.3763 93.0205 56.7344C93.5576 57.3861 94.4779 57.7119 95.7812 57.7119C96.5618 57.7119 97.1956 57.626 97.6826 57.4541C98.6064 57.1247 99.0684 56.5124 99.0684 55.6172C99.0684 55.0944 98.8392 54.6898 98.3809 54.4033C97.9225 54.124 97.2028 53.877 96.2217 53.6621L94.5459 53.2861C92.8988 52.9137 91.7601 52.5091 91.1299 52.0723C90.0628 51.3418 89.5293 50.1995 89.5293 48.6455C89.5293 47.2275 90.0449 46.0495 91.0762 45.1113C92.1074 44.1732 93.6221 43.7041 95.6201 43.7041C97.2887 43.7041 98.7103 44.1481 99.8848 45.0361C101.066 45.917 101.686 47.1989 101.743 48.8818H98.5635C98.5062 47.9294 98.0908 47.2526 97.3174 46.8516C96.8018 46.5866 96.1608 46.4541 95.3945 46.4541C94.5423 46.4541 93.862 46.626 93.3535 46.9697C92.8451 47.3135 92.5908 47.7933 92.5908 48.4092C92.5908 48.9749 92.8415 49.3975 93.3428 49.6768C93.665 49.863 94.3525 50.0814 95.4053 50.332L98.1338 50.9873C99.3298 51.2738 100.232 51.6569 100.841 52.1367C101.786 52.8815 102.259 53.9593 102.259 55.3701C102.259 56.8167 101.704 58.0199 100.594 58.9795C99.4909 59.932 97.9297 60.4082 95.9102 60.4082C93.8477 60.4082 92.2256 59.9391 91.0439 59.001C89.8623 58.0557 89.2715 56.7594 89.2715 55.1123H92.4297ZM11.208 69.166H14.4629V75.6865L20.5752 69.166H24.8506L18.3623 75.6865L25.1836 85H20.9297L16.042 78.082L14.4629 79.7041V85H11.208V69.166ZM34.0566 82.6367C35.3672 82.6367 36.4056 82.1533 37.1719 81.1865C37.9453 80.2197 38.332 78.8447 38.332 77.0615C38.332 75.2855 37.9453 73.9141 37.1719 72.9473C36.4056 71.9733 35.3672 71.4863 34.0566 71.4863C32.7461 71.4863 31.7005 71.9697 30.9199 72.9365C30.1393 73.9033 29.749 75.2783 29.749 77.0615C29.749 78.8447 30.1393 80.2197 30.9199 81.1865C31.7005 82.1533 32.7461 82.6367 34.0566 82.6367ZM41.6406 77.0615C41.6406 79.9046 40.8421 82.0817 39.2451 83.5928C38.0492 84.8245 36.3197 85.4404 34.0566 85.4404C31.7936 85.4404 30.0641 84.8245 28.8682 83.5928C27.264 82.0817 26.4619 79.9046 26.4619 77.0615C26.4619 74.1611 27.264 71.984 28.8682 70.5303C30.0641 69.2985 31.7936 68.6826 34.0566 68.6826C36.3197 68.6826 38.0492 69.2985 39.2451 70.5303C40.8421 71.984 41.6406 74.1611 41.6406 77.0615ZM46.5713 80.1123C46.6715 80.8356 46.8685 81.3763 47.1621 81.7344C47.6992 82.3861 48.6195 82.7119 49.9229 82.7119C50.7035 82.7119 51.3372 82.626 51.8242 82.4541C52.748 82.1247 53.21 81.5124 53.21 80.6172C53.21 80.0944 52.9808 79.6898 52.5225 79.4033C52.0641 79.124 51.3444 78.877 50.3633 78.6621L48.6875 78.2861C47.0404 77.9137 45.9017 77.5091 45.2715 77.0723C44.2044 76.3418 43.6709 75.1995 43.6709 73.6455C43.6709 72.2275 44.1865 71.0495 45.2178 70.1113C46.249 69.1732 47.7637 68.7041 49.7617 68.7041C51.4303 68.7041 52.8519 69.1481 54.0264 70.0361C55.208 70.917 55.8275 72.1989 55.8848 73.8818H52.7051C52.6478 72.9294 52.2324 72.2526 51.459 71.8516C50.9434 71.5866 50.3024 71.4541 49.5361 71.4541C48.6839 71.4541 48.0036 71.626 47.4951 71.9697C46.9867 72.3135 46.7324 72.7933 46.7324 73.4092C46.7324 73.9749 46.9831 74.3975 47.4844 74.6768C47.8066 74.863 48.4941 75.0814 49.5469 75.332L52.2754 75.9873C53.4714 76.2738 54.3737 76.6569 54.9824 77.1367C55.9277 77.8815 56.4004 78.9593 56.4004 80.3701C56.4004 81.8167 55.8454 83.0199 54.7354 83.9795C53.6325 84.932 52.0713 85.4082 50.0518 85.4082C47.9893 85.4082 46.3672 84.9391 45.1855 84.001C44.0039 83.0557 43.4131 81.7594 43.4131 80.1123H46.5713ZM70.3545 69.166V71.9697H65.6172V85H62.2871V71.9697H57.5283V69.166H70.3545ZM72.2988 69.166H75.6611V78.8984C75.6611 79.987 75.79 80.7819 76.0479 81.2832C76.4489 82.1712 77.3226 82.6152 78.6689 82.6152C80.0081 82.6152 80.8783 82.1712 81.2793 81.2832C81.5371 80.7819 81.666 79.987 81.666 78.8984V69.166H85.0283V78.8984C85.0283 80.5814 84.7669 81.8919 84.2441 82.8301C83.2702 84.5488 81.4118 85.4082 78.6689 85.4082C75.9261 85.4082 74.0641 84.5488 73.083 82.8301C72.5602 81.8919 72.2988 80.5814 72.2988 78.8984V69.166ZM79.4102 65.1484H82.2139V67.6943H79.4102V65.1484ZM75.1133 65.1484H77.917V67.6943H75.1133V65.1484ZM98.6924 69.166H103.451V85H100.368V74.29C100.368 73.9821 100.372 73.5524 100.379 73.001C100.386 72.4424 100.39 72.0127 100.39 71.7119L97.3926 85H94.1807L91.2051 71.7119C91.2051 72.0127 91.2087 72.4424 91.2158 73.001C91.223 73.5524 91.2266 73.9821 91.2266 74.29V85H88.1436V69.166H92.9561L95.835 81.6162L98.6924 69.166ZM118.232 71.9697H109.854V75.332H117.545V78.082H109.854V82.1533H118.619V85H106.62V69.166H118.232V71.9697Z" fill="white"/>
</g>
<rect x="0.5" y="0.5" width="129" height="129" stroke="black"/>
<defs>
<clipPath id="clip0_111_1221">
<rect width="130" height="130" fill="white"/>
</clipPath>
</defs>
</svg>
